<?xml version="1.0" encoding="utf-8"?>
<!-- Generator: Adobe Illustrator 27.5.0, SVG Export Plug-In . SVG Version: 6.00 Build 0)  -->
<svg version="1.1" xmlns="http://www.w3.org/2000/svg" xmlns:xlink="http://www.w3.org/1999/xlink" x="0px" y="0px"
	 viewBox="0 0 500 500" style="enable-background:new 0 0 500 500;" xml:space="preserve">
<g id="BACKGROUND">
	<rect style="fill:#FFFFFF;" width="500" height="500"/>
</g>
<g id="OBJECT">
	<ellipse style="fill:#F5F5F5;" cx="249.15" cy="420.583" rx="236.178" ry="30.647"/>
	<path style="fill:#F5F5F5;" d="M439.878,339.759l-236.836-34.928c-7.095-1.046-11.998-7.646-10.952-14.741l25.316-171.663
		c1.046-7.095,7.646-11.998,14.741-10.952l236.836,34.928c7.095,1.046,11.998,7.646,10.952,14.741l-25.316,171.663
		C453.573,335.902,446.973,340.805,439.878,339.759z"/>
	<path style="fill:#F5F5F5;" d="M428.27,323.251l-237.532,29.83c-7.116,0.894-13.608-4.15-14.502-11.266l-21.622-172.168
		c-0.894-7.116,4.15-13.609,11.266-14.502l237.532-29.83c7.116-0.894,13.609,4.15,14.502,11.266l21.622,172.168
		C440.43,315.864,435.386,322.357,428.27,323.251z"/>
	<g>
		<path style="fill:#D6D6D6;" d="M195.688,339.72L195.688,339.72c-1.081,0.136-2.068-0.631-2.203-1.712l-20-159.255
			c-0.136-1.081,0.631-2.068,1.712-2.204l0,0c1.081-0.136,2.068,0.631,2.204,1.712l20,159.255
			C197.535,338.598,196.769,339.584,195.688,339.72z"/>
		<path style="fill:#D6D6D6;" d="M220.34,336.078L220.34,336.078c-1.081,0.136-2.068-0.631-2.204-1.712l-20-159.255
			c-0.136-1.081,0.631-2.068,1.712-2.203l0,0c1.081-0.136,2.068,0.631,2.203,1.712l20,159.255
			C222.188,334.956,221.421,335.942,220.34,336.078z"/>
		<path style="fill:#D6D6D6;" d="M244.992,332.436L244.992,332.436c-1.081,0.136-2.068-0.631-2.204-1.712l-20-159.255
			c-0.136-1.081,0.631-2.068,1.712-2.204l0,0c1.081-0.136,2.068,0.631,2.203,1.712l20,159.255
			C246.84,331.313,246.073,332.3,244.992,332.436z"/>
		<path style="fill:#D6D6D6;" d="M269.644,328.793L269.644,328.793c-1.081,0.136-2.068-0.631-2.204-1.712l-20-159.255
			c-0.136-1.081,0.631-2.068,1.712-2.204l0,0c1.081-0.136,2.068,0.631,2.204,1.712l20,159.255
			C271.492,327.671,270.726,328.657,269.644,328.793z"/>
		<path style="fill:#D6D6D6;" d="M294.297,325.151L294.297,325.151c-1.081,0.136-2.068-0.631-2.203-1.712l-20-159.255
			c-0.136-1.081,0.631-2.068,1.712-2.203l0,0c1.081-0.136,2.068,0.631,2.203,1.712l20,159.255
			C296.144,324.029,295.378,325.015,294.297,325.151z"/>
		<path style="fill:#D6D6D6;" d="M318.949,321.508L318.949,321.508c-1.081,0.136-2.068-0.631-2.203-1.712l-20-159.255
			c-0.136-1.081,0.631-2.068,1.712-2.204l0,0c1.081-0.136,2.068,0.631,2.203,1.712l20,159.255
			C320.796,320.386,320.03,321.373,318.949,321.508z"/>
		<path style="fill:#D6D6D6;" d="M343.601,317.866L343.601,317.866c-1.081,0.136-2.068-0.631-2.203-1.712l-20-159.255
			c-0.136-1.081,0.631-2.068,1.712-2.204l0,0c1.081-0.136,2.068,0.631,2.203,1.712l20,159.255
			C345.449,316.744,344.682,317.73,343.601,317.866z"/>
		<path style="fill:#D6D6D6;" d="M368.253,314.224L368.253,314.224c-1.081,0.136-2.068-0.631-2.203-1.712l-20-159.255
			c-0.136-1.081,0.631-2.068,1.712-2.203l0,0c1.081-0.136,2.068,0.631,2.203,1.712l20,159.255
			C370.101,313.102,369.334,314.088,368.253,314.224z"/>
		<path style="fill:#D6D6D6;" d="M392.905,310.581L392.905,310.581c-1.081,0.136-2.068-0.631-2.204-1.712l-20-159.255
			c-0.136-1.081,0.631-2.068,1.712-2.203l0,0c1.081-0.136,2.068,0.631,2.203,1.712l20,159.255
			C394.753,309.459,393.987,310.446,392.905,310.581z"/>
		<path style="fill:#D6D6D6;" d="M417.558,306.939L417.558,306.939c-1.081,0.136-2.068-0.631-2.203-1.712l-20-159.255
			c-0.136-1.081,0.631-2.068,1.712-2.204l0,0c1.081-0.136,2.068,0.631,2.203,1.712l20,159.255
			C419.405,305.817,418.639,306.803,417.558,306.939z"/>
	</g>
	<path style="fill:none;stroke:#262626;stroke-width:0.4147;stroke-linecap:round;stroke-linejoin:round;stroke-miterlimit:10;" d="
		M212.575,149.281l187.756-24.505c9.449-1.233,18.07,5.528,19.125,14.998l8.975,80.551"/>
	<path style="fill:#F5F5F5;" d="M460.476,415.203l-238.785-12.409c-7.242-0.376-12.807-6.552-12.431-13.794l9.222-177.465
		c0.376-7.242,6.552-12.807,13.794-12.431l238.785,12.409c7.242,0.376,12.807,6.552,12.431,13.794l-9.223,177.465
		C473.894,410.014,467.718,415.579,460.476,415.203z"/>
	<path style="fill:none;stroke:#262626;stroke-width:0.4147;stroke-linecap:round;stroke-linejoin:round;stroke-miterlimit:10;" d="
		M460.476,415.203l-238.785-12.409c-7.242-0.376-12.807-6.552-12.431-13.794l9.222-177.465c0.376-7.242,6.552-12.807,13.794-12.431
		l238.785,12.409c7.242,0.376,12.807,6.552,12.431,13.794l-9.223,177.465C473.894,410.014,467.718,415.579,460.476,415.203z"/>
	<path style="fill:#FFC001;" d="M260.994,220.326l-26.346-34.077c-2.841-3.674-7.199-5.88-11.619-5.88h-68.058
		c-7.309,0-12.613,5.925-11.848,13.234l2.799,26.723l0.105,1l19.36,184.821c0.766,7.309,7.311,13.234,14.62,13.234h270.704
		c7.309,0,12.613-5.925,11.848-13.234L444.481,233.56c-0.766-7.309-7.311-13.234-14.62-13.234H260.994z"/>
	<g>
		<path style="fill:#E8A600;" d="M294.768,344.344c-1.496-5.711-2.264-10.31-2.306-13.794c-0.041-3.484,0.815-6.679,2.572-9.583
			c0.996-1.743,2.248-3.242,3.759-4.501c1.509-1.257,2.854-2.589,4.036-3.993c1.18-1.402,2.074-2.977,2.684-4.719
			c0.608-1.742,0.546-4.016-0.189-6.824c-1.242-4.742-3.417-8.059-6.525-9.946c-3.108-1.888-6.454-2.832-10.034-2.832
			c-5.132,0-8.29,1.43-9.478,4.284c-1.189,2.856-1.392,6.704-0.607,11.544h-18.73c-1.242-4.742-1.597-9.05-1.061-12.923
			c0.534-3.871,1.875-7.163,4.021-9.874c2.145-2.709,5.036-4.792,8.674-6.243c3.635-1.452,7.874-2.178,12.715-2.178
			c10.454,0,19.263,2.13,26.43,6.389c7.164,4.261,12.003,11.18,14.513,20.764c0.812,3.099,1.205,5.808,1.186,8.131
			c-0.022,2.323-0.415,4.429-1.177,6.316c-0.765,1.887-1.852,3.655-3.259,5.3c-1.409,1.647-3.046,3.34-4.913,5.082
			c-1.699,1.647-3.018,3.172-3.957,4.574c-0.939,1.404-1.546,2.881-1.816,4.429c-0.272,1.549-0.283,3.172-0.033,4.864
			c0.249,1.695,0.655,3.608,1.212,5.735H294.768z M301.527,372.368l-4.981-19.021l19.601,0l4.981,19.021H301.527z"/>
	</g>
	
		<line style="fill:none;stroke:#262626;stroke-width:0.4657;stroke-linecap:round;stroke-linejoin:round;stroke-miterlimit:10;" x1="145.922" y1="220.326" x2="146.027" y2="221.326"/>
	<path style="fill:none;stroke:#262626;stroke-width:0.4657;stroke-linecap:round;stroke-linejoin:round;stroke-miterlimit:10;" d="
		M143.123,193.603"/>
	<path style="fill:none;stroke:#262626;stroke-width:0.4657;stroke-linecap:round;stroke-linejoin:round;stroke-miterlimit:10;" d="
		M462.559,406.146L444.481,233.56c-0.766-7.309-7.311-13.234-14.62-13.234H260.994l-26.346-34.077
		c-2.841-3.674-7.199-5.88-11.619-5.88h-68.058"/>
	<path style="fill:none;stroke:#262626;stroke-width:0.4657;stroke-linecap:round;stroke-linejoin:round;stroke-miterlimit:10;" d="
		M446.712,419.38"/>
	<path style="fill:none;stroke:#262626;stroke-width:0.4657;stroke-linecap:round;stroke-linejoin:round;stroke-miterlimit:10;" d="
		M176.008,419.38"/>
	<path style="fill:none;stroke:#262626;stroke-width:0.4657;stroke-linecap:round;stroke-linejoin:round;stroke-miterlimit:10;" d="
		M161.387,406.146"/>
	<g>
		<path style="fill:#3897E9;" d="M127.873,251.414v7.68c0,0,12.535,52.586,14.981,59.618c2.446,7.032-8.561,74.752-8.561,74.752
			H97.606l4.656-75.363l-39.949,70.4l-32.776-19.343c0,0,31.878-59.972,32.776-70.801C63.211,287.527,60,237.644,60,237.644
			L127.873,251.414z"/>
		
			<path style="fill:none;stroke:#262626;stroke-width:0.4147;stroke-linecap:round;stroke-linejoin:round;stroke-miterlimit:10;" d="
			M79.726,241.646c0,0,3.716,52.618,1.079,61.866c-2.637,9.248-33.684,76.024-33.684,76.024"/>
		<path style="fill:#1775AF;" d="M102.237,316.96c-1.544,25.501-3.087,51.002-4.631,76.503h16.104l-5.77-89.952
			c-0.331,2.242-1.042,5.276-2.657,8.561C104.312,314.048,103.23,315.672,102.237,316.96z"/>
		<path style="fill:#1775AF;" d="M96.326,273.236l-5.933-4.331h2.883c1.805,0,3.087-1.758,2.535-3.477
			c-0.132-0.412-0.516-0.691-0.949-0.698c-1.841-0.032-3.379-0.116-4.518-0.196c-2.709-0.19-4.088-0.293-5.264-0.712
			c-1.93-0.687-2.192-1.375-4.166-2.064c-1.195-0.417-2.292-0.579-3.19-0.635c-4.388-3.761-7.963-7.962-10.522-12.572l-5.48,20.125
			c-0.142-0.031,0.179,1.847,0.088,1.918c3.054,1.482,5.558,2.252,8.28,3.184c0.276,1.064,0.723,2.255,1.462,3.458
			c1.146,1.865,2.43,2.848,4.854,4.701c0.482,0.369,0.112,0.064,6.109,3.356c0.561,0.308,1.618,0.889,2.375,0.466
			c0.629-0.352,0.86-1.292,0.879-1.376c0.103-0.441,0.063-0.819,0.019-1.051c0.138,0.114,0.349,0.267,0.63,0.398
			c0.759,0.353,2.159,0.601,3.001-0.226c0.743-0.731,0.612-1.872,0.582-2.138c-0.053-0.468-0.209-0.835-0.333-1.072l1.066,0.426
			c0.76,0.304,1.625,0.184,2.274-0.315c1.219-0.938,1.204-2.781-0.031-3.698l-0.367-0.273l2.043,0.47
			c0.782,0.18,1.597-0.111,2.088-0.745C97.45,275.241,97.263,273.919,96.326,273.236z"/>
		<path style="fill:#F7A99C;" d="M125.682,164.391c0,0,28.237,55.786,31.413,62.21c3.176,6.424,26.373,32.432,26.373,32.432
			l-14.654,9.637c-6.254-5.29-12.508-10.581-18.762-15.871c-4.1-3.673-8.201-7.889-12.123-12.731
			c-22.365-27.611-26.052-59.685-26.471-77.446L125.682,164.391z"/>
		<path style="fill:#FF7769;" d="M148.03,208.588c-0.52,3.78-1.724,9.269-4.741,15.262c-2.505,4.976-6.28,9.432-8.633,11.966
			c-0.409-0.38-1.781-1.745-2.087-3.998c-0.263-1.938,0.413-3.423,0.688-3.955l11.752-26.083L148.03,208.588z"/>
		
			<path style="fill:none;stroke:#262626;stroke-width:0.4147;stroke-linecap:round;stroke-linejoin:round;stroke-miterlimit:10;" d="
			M98.949,125.49c-1.872,1.937-3.617,3.033-4.897,3.683c-3.471,1.762-5.558,4.445-6.388,8.327c-0.673,3.145-0.426,6.464,0.617,9.501
			c0.53,1.542,1.266,3.015,2.194,4.357c0.905,1.31,1.834,2.34,1.372,4.08c-0.619,2.335-3.767,3.071-5.358,4.619
			c-1.965,1.912-3.013,4.688-3.113,7.4c-0.061,1.656,0.202,3.362,1.035,4.795c1.032,1.776,2.791,2.911,4.523,3.921
			c1.863,1.086,3.672,2.267,5.584,3.265"/>
		
			<path style="fill:none;stroke:#262626;stroke-width:0.4147;stroke-linecap:round;stroke-linejoin:round;stroke-miterlimit:10;" d="
			M129.9,126.949c1.814,1.83,3.732,3.874,3.983,6.438c0.103,1.049-0.089,2.105-0.361,3.124c-0.497,1.857-1.264,3.634-1.733,5.498
			c-0.363,1.441-0.543,2.966-0.193,4.41c0.317,1.309,1.054,2.481,1.907,3.523c2.427,2.968,5.217,5.026,5.782,9.069
			c0.308,2.201,0.052,4.443-0.346,6.629c-0.247,1.358-0.571,2.754-1.41,3.85c-1.545,2.02-4.456,2.712-6.822,3.192"/>
		<path style="fill:#262626;" d="M112.064,122.532c-1.885-0.011-3.526,0.043-4.132,0.099c-7.852,0.722-15.199,5.139-17.518,12.986
			c-1.063,3.597-0.867,6.642-0.523,8.326c0.888,4.346,3.81,5.981,3.065,9.155c-0.152,0.647-0.348,0.921-1.842,3.074
			c-3.408,4.911-5.116,7.375-5.274,7.796c-1.483,3.957,0.045,8.735,2.37,11.589c1.457,1.789,3.52,3.336,6.324,4.309
			c4.895,1.699,19.735,7.62,33.268-0.459c3.351-2,8.857-5.287,10.319-11.465c1.801-7.611-3.598-15.119-4.433-16.28
			c-1.987-2.763-2.422-2.113-3.516-4.051c-2.281-4.039-1.034-8.419,0.137-12.58c1.139-4.047,0.713-6.266-0.008-7.524
			c-1.884-3.287-6.975-3.995-11.078-4.566C116.448,122.557,113.234,122.539,112.064,122.532z"/>
		<path style="fill:#FDB6D6;" d="M115.808,163.427c9.997,3.551,15.894,8.922,18.836,12.083c5.155,5.539,8.31,11.889,10.662,16.624
			c1.552,3.123,2.677,5.828,3.439,7.796l-16.469,35.885L115.808,163.427z"/>
		<path style="fill:#FDB6D6;" d="M101.806,163.23h14.001c0,0,18.611,13.655,22.678,25.578c4.068,11.924-10.675,65.136-10.675,65.136
			c-10.073,0.265-21.829-0.141-34.815-1.949c-17.876-2.489-33.018-6.929-44.913-11.365c2.591-12.209,5.31-22.456,7.567-30.268
			c6.36-22.013,10.244-28.836,15.822-34.395c5.174-5.155,10.332-7.755,11.905-8.51C90.905,163.84,97.825,163.261,101.806,163.23z"/>
		<path style="fill:#FF97CB;" d="M127.803,179.408c0,0,0.659,28.257-1.94,38.499c-2.599,10.242-9.235,36.038-9.235,36.038h11.184
			c0,0,6.076-22.815,6.535-28.548c0.459-5.732,1.086-15.592,0.314-19.834c-0.772-4.242-2.352-13.253-3.396-16.945
			C130.219,184.926,127.803,179.408,127.803,179.408z"/>
		<path style="fill:#FF97CB;" d="M79.726,214.338c-1.57,0.897-6.861,4.181-9.125,10.83c-3.56,10.458,4.132,23.042,4.571,23.563
			l-23.832-5.907c0,0,0.611-16.968,2.522-23.236s11.16-16.332,11.16-16.332L79.726,214.338z"/>
		<g>
			<path style="fill:#F7A99C;" d="M108.836,170.207L108.836,170.207c-3.868,0.015-7.015-3.109-7.029-6.976l-0.057-15.07
				l14.006-0.053l0.057,15.07C115.827,167.045,112.703,170.192,108.836,170.207z"/>
			<path style="fill:#FF7769;" d="M115.796,158.959l-9.121-4.686c0.092,0.79,0.611,4.489,3.864,7.044
				c2.077,1.631,4.261,2.004,5.269,2.11L115.796,158.959z"/>
			<path style="fill:#F7A99C;" d="M101.409,143.492c-0.044-0.228-0.644-0.572-0.829-0.689c-0.311-0.199-0.648-0.358-1-0.471
				c-0.683-0.22-1.434-0.271-2.136-0.11c-1.396,0.32-2.634,1.493-2.867,2.93c-0.135,0.835,0.058,1.698,0.416,2.464
				c0.538,1.152,1.45,2.12,2.551,2.755c0.913,0.526,1.952,0.823,3.002,0.886c0.21,0.013,2.363-0.037,2.347-0.12
				C102.399,148.588,101.904,146.04,101.409,143.492z"/>
			<path style="fill:#F7A99C;" d="M99.49,143.638c0.166,1.125,1.154,7.055,6.5,11.245c0.985,0.772,7.531,5.903,13.521,3.399
				c7.697-3.218,6.857-15.86,6.803-16.545c-0.183-2.315-0.724-9.132-6.369-12.769c-4.608-2.968-9.6-1.877-10.308-1.71
				c-0.746,0.175-5.499,1.375-8.408,6.035C98.588,137.522,99.218,141.798,99.49,143.638z"/>
			<path style="fill:#262626;" d="M121.945,141.746c0.124,0.987,0.885,1.704,1.7,1.602c0.815-0.102,1.375-0.985,1.251-1.972
				c-0.124-0.987-0.885-1.704-1.7-1.602C122.381,139.876,121.821,140.759,121.945,141.746z"/>
			<path style="fill:#262626;" d="M113.051,142.863c0.124,0.987,0.885,1.704,1.7,1.602c0.815-0.102,1.375-0.985,1.251-1.972
				c-0.124-0.987-0.885-1.704-1.7-1.602C113.487,140.993,112.927,141.876,113.051,142.863z"/>
			
				<path style="fill:none;stroke:#262626;stroke-width:0.733;stroke-linecap:round;stroke-linejoin:round;stroke-miterlimit:10;" d="
				M119.26,143.223l1.364,1.842c0.251,0.339,0.157,0.819-0.203,1.038l-1.252,0.762"/>
			<path style="fill:#FF7769;" d="M110.068,147.512c0.139,1.107,1.15,1.893,2.257,1.753s1.893-1.15,1.753-2.257
				c-0.139-1.107-1.15-1.893-2.257-1.753C110.714,145.394,109.929,146.404,110.068,147.512z"/>
			
				<path style="fill:none;stroke:#262626;stroke-width:0.733;stroke-linecap:round;stroke-linejoin:round;stroke-miterlimit:10;" d="
				M100.47,148.556c0.007-0.222,0.026-1.726-1.181-2.811c-0.945-0.85-2.045-0.906-2.345-0.911"/>
			
				<path style="fill:none;stroke:#262626;stroke-width:0.733;stroke-linecap:round;stroke-linejoin:round;stroke-miterlimit:10;" d="
				M99.406,146.042c-0.067-0.01-0.876-0.123-1.441,0.489c-0.465,0.503-0.422,1.125-0.413,1.228"/>
			<path style="fill:#262626;" d="M99.313,142.257c0,0,0.995,0.088,1.745,0.833c0.75,0.744,1.016,2.019,1.016,2.019
				c1.917-0.233,6.308-1.042,10.291-4.499c2.159-1.874,3.477-3.9,4.254-5.361c0.726,0.653,1.965,1.634,3.718,2.39
				c2.287,0.986,5.144,1.458,5.523,0.69c0.07-0.142-0.007-0.554-0.163-1.377c-0.056-0.298-0.115-0.739-0.26-1.161
				c-0.283-0.826-0.651-1.623-1.09-2.378c-0.88-1.51-2.051-2.851-3.429-3.926c-0.895-0.698-1.879-1.284-2.925-1.729
				c-3.32-1.412-7.93-1.413-11.898,0.703c0,0-4.43,2.363-6.383,6.987c-0.671,1.589-0.84,3.178-0.882,3.729
				c-0.084,1.091,0.039,1.804,0.205,2.352C99.129,141.839,99.234,142.087,99.313,142.257z"/>
			<path style="fill:#FF7769;" d="M125.265,144.316c0.383-0.048,0.752,0.021,1.08,0.169c-0.039,1.085-0.143,2.401-0.382,3.797
				c-0.065,0.015-0.127,0.036-0.194,0.045c-1.107,0.139-2.118-0.646-2.257-1.753C123.372,145.465,124.157,144.455,125.265,144.316z"
				/>
			
				<line style="fill:none;stroke:#262626;stroke-width:0.733;stroke-linecap:round;stroke-linejoin:round;stroke-miterlimit:10;" x1="119.966" y1="149.6" x2="116.296" y2="151.098"/>
		</g>
		<path style="fill:#1775AF;" d="M128.304,259.48L68.64,275.348c-4.528,1.204-7.223,5.851-6.019,10.38
			c1.204,4.528,5.852,7.223,10.38,6.018l59.087-15.714L128.304,259.48z"/>
		<path style="fill:#4450E4;" d="M62.622,283.727L62.622,283.727c-1.204-4.528,1.49-9.175,6.018-10.38l117.022-31.123l4.361,16.398
			L73.001,289.746C68.473,290.95,63.826,288.256,62.622,283.727z"/>
		<path style="fill:#3041BF;" d="M96.326,273.236l-5.933-4.331h2.883c1.805,0,3.087-1.758,2.535-3.477
			c-0.132-0.412-0.516-0.691-0.949-0.698c-1.841-0.032-3.379-0.116-4.518-0.196c-2.709-0.19-4.088-0.293-5.264-0.712
			c-1.93-0.687-2.192-1.375-4.166-2.064c-1.195-0.417-2.292-0.579-3.19-0.635c-0.578-0.495-1.139-0.999-1.688-1.509l-7.441,13.657
			c0.494,0.167,0.991,0.334,1.495,0.507c0.276,1.064,0.723,2.255,1.462,3.458c1.146,1.865,2.43,2.848,4.854,4.701
			c0.482,0.369,0.112,0.064,6.109,3.356c0.561,0.308,1.618,0.889,2.375,0.466c0.629-0.352,0.86-1.292,0.879-1.376
			c0.103-0.441,0.063-0.819,0.019-1.051c0.138,0.114,0.349,0.267,0.63,0.398c0.759,0.353,2.159,0.601,3.001-0.226
			c0.743-0.731,0.612-1.872,0.582-2.138c-0.053-0.468-0.209-0.835-0.333-1.072l1.066,0.426c0.76,0.304,1.625,0.184,2.274-0.315
			c1.219-0.938,1.204-2.781-0.031-3.698l-0.367-0.273l2.043,0.47c0.782,0.18,1.597-0.111,2.088-0.745
			C97.45,275.241,97.263,273.919,96.326,273.236z"/>
		<path style="fill:#F7A99C;" d="M80.643,172.682c-26.196,11.217-44.048,32.028-44.025,53.274c0.014,13.174,6.9,24.877,9.172,28.739
			c8.789,14.938,26.152,16.776,32.378,20.231l7.086-10.142c-15.335-9.802-24.761-23.494-22.038-40.662
			c3.478-21.924,22.93-31.808,24.789-32.713L80.643,172.682z"/>
		<path style="fill:#FF7769;" d="M51.875,192.12l19.433,13.263l-3.521,5.4c-3.008-0.93-7.215-2.599-11.632-5.678
			c-3.94-2.746-6.741-5.703-8.607-8.002C48.991,195.441,50.433,193.781,51.875,192.12z"/>
		<path style="fill:#FDB6D6;" d="M48.083,190.49l31.643,23.847c7.672-15.766,13.624-27.318,17.885-35.389
			c1.857-3.518,6.584-12.417,3.783-15.248c-0.717-0.725-2.886-0.865-7.223-1.147c-3.449-0.223-5.497-0.345-8.255,0
			c0,0-3.265,0.409-6.802,1.643C73.767,166.063,61.645,175.415,48.083,190.49z"/>
		<path style="fill:#F7A99C;" d="M104.953,393.464v24.333h39.015l-1.02-7.001c0,0-12.234-6.865-14.138-8.428
			c-1.903-1.563-3.942-4.622-4.35-5.573s0-3.331,0-3.331H104.953z"/>
		<path style="fill:#FFC001;" d="M102.982,402.639c0.476-0.132,1.195-0.254,1.971-0.034c1.995,0.567,2.519,2.878,3.382,4.112
			c0,0,22.379,0.255,22.379,0.255c-0.047-1.134-0.094-2.269-0.14-3.403c1.165-0.378,2.329-0.756,3.494-1.134
			c2.44,2.722,4.813,4.302,6.607,5.257c2.754,1.467,6.325,2.626,7.779,5.108c0.705,1.204,0.741,2.428,0.745,2.654
			c0.011,0.631,0.026,1.515-0.609,2.104c-0.472,0.438-1.077,0.501-1.359,0.51c-14.444-0.091-28.887-0.181-43.331-0.272
			c-0.507,0-0.918-0.411-0.918-0.918V402.639z"/>
		<path style="fill:#5D1113;" d="M147.28,420.583h-42.576c-0.951,0-1.721-0.771-1.721-1.721v-1.909h46.018v1.909
			C149.001,419.813,148.23,420.583,147.28,420.583z"/>
		<polygon style="fill:#FF7769;" points="104.953,393.464 124.461,393.464 124.29,395.894 104.953,395.894 		"/>
		<path style="fill:#F7A99C;" d="M36.095,372.706l-12.596,20.819l33.38,20.196l2.752-6.518c0,0-6.914-12.207-7.733-14.53
			c-0.819-2.323-0.98-5.995-0.837-7.021c0.144-1.025,1.724-2.849,1.724-2.849L36.095,372.706z"/>
		<path style="fill:#FFC001;" d="M29.658,379.536c0.476,0.133,1.155,0.401,1.704,0.991c1.414,1.518,0.666,3.767,0.764,5.269
			c0,0,19.015,11.803,19.015,11.803c0.547-0.995,1.094-1.99,1.642-2.984c1.192,0.28,2.384,0.559,3.576,0.839
			c0.679,3.592,1.892,6.172,2.931,7.918c1.597,2.68,4.052,5.521,4.011,8.398c-0.02,1.396-0.623,2.461-0.736,2.656
			c-0.317,0.545-0.762,1.31-1.61,1.485c-0.631,0.13-1.18-0.129-1.427-0.267c-12.311-7.555-24.621-15.109-36.932-22.663
			c-0.434-0.262-0.572-0.827-0.31-1.26L29.658,379.536z"/>
		<path style="fill:#5D1113;" d="M58.269,417.82l-36.427-22.04c-0.813-0.492-1.074-1.55-0.582-2.364l0.988-1.634l39.373,23.822
			l-0.988,1.634C60.141,418.051,59.083,418.312,58.269,417.82z"/>
		<polygon style="fill:#FF7769;" points="36.095,372.706 52.785,382.804 51.381,384.795 34.836,374.785 		"/>
		
			<path style="fill:none;stroke:#262626;stroke-width:0.4147;stroke-linecap:round;stroke-linejoin:round;stroke-miterlimit:10;" d="
			M94.535,179.866c-0.395,4.49-1.479,11.029-4.595,18.321c-3.16,7.394-7.208,12.751-10.213,16.151
			c-10.548-7.949-21.096-15.898-31.643-23.847"/>
		
			<path style="fill:none;stroke:#262626;stroke-width:0.4147;stroke-linecap:round;stroke-linejoin:round;stroke-miterlimit:10;" d="
			M127.697,178.467c1.616,3.862,3.119,8.186,4.325,12.956c4.396,17.391,2.835,32.772,0.692,43.139"/>
		
			<path style="fill:none;stroke:#FFFFFF;stroke-width:0.4147;stroke-linecap:round;stroke-linejoin:round;stroke-miterlimit:10;" d="
			M85.254,166.615c0,0-7.774,0.54-13.048,4.782c-5.274,4.242-12.497,11.58-12.497,11.58"/>
		
			<path style="fill:none;stroke:#262626;stroke-width:0.4147;stroke-linecap:round;stroke-linejoin:round;stroke-miterlimit:10;" d="
			M70.085,207.072c-2.922,4.215-4.509,8.135-5.398,10.889c-1.394,4.323-1.717,7.794-1.803,8.874
			c-0.217,2.729-0.528,6.648,0.814,11.149c0.562,1.887,1.945,5.653,1.945,5.653l0,0"/>
		<path style="fill:#F7A99C;" d="M69.622,269.293c0.093,1.378,0.444,3.674,1.872,6c1.146,1.865,2.43,2.848,4.854,4.701
			c0.483,0.369,0.112,0.064,6.109,3.356c0.561,0.308,1.618,0.889,2.375,0.466c0.629-0.352,0.86-1.292,0.879-1.376
			c0.103-0.441,0.063-0.819,0.019-1.051c0.138,0.114,0.349,0.267,0.63,0.398c0.759,0.353,2.16,0.601,3.001-0.226
			c0.743-0.731,0.613-1.872,0.582-2.138c-0.054-0.468-0.209-0.835-0.334-1.072l1.066,0.426c0.761,0.304,1.625,0.185,2.275-0.315l0,0
			c1.219-0.938,1.204-2.781-0.031-3.698l-0.367-0.273l2.043,0.47c0.782,0.18,1.596-0.111,2.087-0.745l0,0
			c0.71-0.917,0.523-2.238-0.413-2.922l-5.933-4.331h2.884c1.805,0,3.087-1.758,2.535-3.477l0,0
			c-0.132-0.412-0.516-0.691-0.949-0.698c-1.842-0.032-3.379-0.116-4.518-0.196c-2.709-0.19-4.088-0.293-5.264-0.712
			c-1.93-0.687-2.192-1.375-4.165-2.064c-1.661-0.579-3.148-0.675-4.15-0.664L69.622,269.293z"/>
		
			<path style="fill:none;stroke:#262626;stroke-width:0.4147;stroke-linecap:round;stroke-linejoin:round;stroke-miterlimit:10;" d="
			M85.73,281.388c-1.003-1.166-2.287-2.481-3.893-3.788c-1.366-1.111-2.684-1.987-3.86-2.675"/>
		
			<path style="fill:none;stroke:#262626;stroke-width:0.4147;stroke-linecap:round;stroke-linejoin:round;stroke-miterlimit:10;" d="
			M89.609,278.35c-0.998-1.18-2.275-2.513-3.874-3.845c-1.769-1.472-3.475-2.562-4.93-3.363"/>
		
			<path style="fill:none;stroke:#262626;stroke-width:0.4147;stroke-linecap:round;stroke-linejoin:round;stroke-miterlimit:10;" d="
			M92.552,274.49c-1.281-1.273-2.923-2.696-4.968-4.051c-1.339-0.887-2.624-1.596-3.798-2.164"/>
		
			<path style="fill:none;stroke:#262626;stroke-width:0.4147;stroke-linecap:round;stroke-linejoin:round;stroke-miterlimit:10;" d="
			M80.805,355.911l24.19-43.965c2.1-3.817,3.111-8.138,2.921-12.49l-0.817-18.779"/>
		<path style="fill:#F7A99C;" d="M168.382,268.939L168.382,268.939c-1.326,0.766-3.022,0.311-3.788-1.015l-4.198-7.272
			c-0.766-1.326-0.311-3.022,1.015-3.788l0,0c1.326-0.766,3.022-0.311,3.788,1.015l4.199,7.272
			C170.162,266.477,169.708,268.173,168.382,268.939z"/>
		<path style="fill:#F7A99C;" d="M172.651,267.543L172.651,267.543c-1.326,0.766-3.022,0.311-3.788-1.015l-5.154-8.927
			c-0.766-1.326-0.311-3.022,1.015-3.788l0,0c1.326-0.766,3.022-0.311,3.788,1.015l5.154,8.927
			C174.432,265.081,173.977,266.777,172.651,267.543z"/>
		<path style="fill:#F7A99C;" d="M176.849,265.219L176.849,265.219c-1.326,0.766-3.022,0.311-3.788-1.015l-5.407-9.365
			c-0.766-1.326-0.311-3.022,1.015-3.788l0,0c1.326-0.766,3.022-0.311,3.788,1.015l5.407,9.365
			C178.63,262.758,178.175,264.454,176.849,265.219z"/>
		<path style="fill:#F7A99C;" d="M179.54,263.719L179.54,263.719c-1.448,0.499-3.026-0.27-3.525-1.718l-3.523-10.224
			c-0.499-1.448,0.27-3.026,1.718-3.525l0,0c1.448-0.499,3.026,0.27,3.525,1.718l3.523,10.224
			C181.757,261.642,180.988,263.22,179.54,263.719z"/>
		
			<path style="fill:none;stroke:#262626;stroke-width:0.4147;stroke-linecap:round;stroke-linejoin:round;stroke-miterlimit:10;" d="
			M164.423,254.018c-0.636,0.661-0.861,1.26-0.955,1.617c-0.453,1.705,0.885,3.742,3.58,7.748c0.613,0.911,1.521,2.21,1.522,2.21
			c0.001-0.001,0-0.002,0-0.002l0,0"/>
		
			<path style="fill:none;stroke:#262626;stroke-width:0.4147;stroke-linecap:round;stroke-linejoin:round;stroke-miterlimit:10;" d="
			M168.669,251.051c-0.45,0.437-0.973,1.093-1.16,1.977c-0.243,1.149,0.235,1.969,2.853,6.502c0.866,1.499,2.08,3.602,2.08,3.602
			l0,0"/>
		
			<path style="fill:none;stroke:#262626;stroke-width:0.4147;stroke-linecap:round;stroke-linejoin:round;stroke-miterlimit:10;" d="
			M173.446,248.79c-0.295,0.279-0.737,0.782-0.885,1.502c-0.144,0.696,0.052,1.274,0.137,1.527c0.448,1.328,1.451,4.358,2.836,8.375
			"/>
		
			<ellipse transform="matrix(0.9292 -0.3695 0.3695 0.9292 -67.1858 105.4773)" style="opacity:0.5;fill:#CDEBF5;" cx="241.785" cy="228.146" rx="58.098" ry="58.098"/>
		<path style="fill:#4450E4;" d="M241.785,163.236c-35.849,0-64.91,29.061-64.91,64.91c0,35.849,29.061,64.91,64.91,64.91
			c35.849,0,64.91-29.061,64.91-64.91C306.695,192.297,277.634,163.236,241.785,163.236z M241.785,282.516
			c-30.028,0-54.37-24.342-54.37-54.37c0-30.028,24.342-54.37,54.37-54.37c30.028,0,54.37,24.342,54.37,54.37
			C296.155,258.174,271.813,282.516,241.785,282.516z"/>
		<g>
			<g>
				<path style="fill:#FFFFFF;" d="M253.265,266.494c-0.687-0.613-1.141-1.487-1.201-2.478c-0.122-1.996,1.396-3.712,3.392-3.834
					c3.626-0.222,7.208-1.233,10.361-2.924c3.523-1.889,5.822-4.228,6.879-5.454c1.253-1.455,3.862-4.481,4.811-8.968
					c1.32-6.249-1.432-11.641-2.676-13.67c-1.046-1.704-0.511-3.933,1.193-4.978c1.704-1.045,3.935-0.51,4.978,1.193
					c2.109,3.438,5.379,10.472,3.588,18.952c-1.333,6.307-4.891,10.435-6.41,12.198c-1.692,1.962-4.616,4.788-8.94,7.108
					c-4.067,2.181-8.68,3.485-13.341,3.77C254.893,267.469,253.96,267.115,253.265,266.494z"/>
			</g>
		</g>
		
			<path style="fill:none;stroke:#262626;stroke-width:0.4147;stroke-linecap:round;stroke-linejoin:round;stroke-miterlimit:10;" d="
			M207.035,179.537c4.059-3.027,17.395-12.178,36.688-11.924c18.658,0.246,31.444,9.138,35.541,12.253"/>
	</g>
	<g>
		<path style="fill:#4450E4;" d="M143.201,96.444c0.615-3.192,1.354-5.715,2.216-7.568c0.862-1.854,2.153-3.456,3.872-4.808
			c0.999-0.817,2.08-1.478,3.244-1.984c1.162-0.505,2.252-1.066,3.27-1.684c1.015-0.617,1.915-1.356,2.699-2.215
			c0.783-0.859,1.326-2.072,1.628-3.642c0.511-2.65,0.138-4.644-1.12-5.981c-1.258-1.336-2.888-2.198-4.888-2.583
			c-2.868-0.553-4.997-0.134-6.385,1.252c-1.391,1.388-2.481,3.408-3.273,6.06l-10.468-2.018c0.511-2.65,1.407-4.975,2.69-6.972
			c1.282-1.996,2.868-3.599,4.756-4.806c1.887-1.207,4.032-2,6.434-2.379c2.4-0.379,4.954-0.308,7.66,0.214
			c5.842,1.126,10.224,3.206,13.147,6.237c2.921,3.033,3.867,7.226,2.835,12.582c-0.334,1.732-0.802,3.212-1.403,4.443
			c-0.603,1.23-1.357,2.305-2.263,3.225c-0.907,0.919-1.963,1.74-3.168,2.461c-1.206,0.722-2.551,1.444-4.037,2.168
			c-1.368,0.691-2.492,1.358-3.374,2.001c-0.882,0.644-1.596,1.362-2.14,2.154c-0.546,0.793-0.964,1.653-1.254,2.578
			c-0.291,0.926-0.551,1.985-0.78,3.174L143.201,96.444z M139.858,112.043l2.049-10.63l10.955,2.111l-2.049,10.63L139.858,112.043z"
			/>
	</g>
	<g>
		<path style="fill:#4450E4;" d="M54.743,130.774c-0.323-2.575-0.387-4.673-0.192-6.293c0.195-1.62,0.778-3.156,1.749-4.608
			c0.556-0.868,1.213-1.637,1.971-2.309c0.757-0.671,1.446-1.367,2.065-2.088c0.618-0.72,1.118-1.504,1.5-2.35
			c0.381-0.846,0.493-1.901,0.334-3.167c-0.268-2.138-1.045-3.559-2.331-4.262c-1.285-0.703-2.736-0.953-4.35-0.75
			c-2.314,0.291-3.826,1.135-4.536,2.531c-0.712,1.398-1.039,3.201-0.983,5.41l-8.444,1.061c-0.269-2.138-0.164-4.124,0.315-5.958
			c0.479-1.833,1.285-3.442,2.42-4.826c1.134-1.383,2.565-2.516,4.295-3.399c1.728-0.882,3.684-1.46,5.866-1.734
			c4.713-0.592,8.554-0.099,11.523,1.479c2.968,1.578,4.724,4.527,5.267,8.847c0.175,1.397,0.187,2.637,0.035,3.72
			c-0.153,1.083-0.459,2.086-0.919,3.008c-0.461,0.922-1.059,1.807-1.795,2.653c-0.737,0.847-1.579,1.728-2.527,2.645
			c-0.867,0.863-1.555,1.648-2.065,2.354c-0.51,0.707-0.874,1.429-1.091,2.165c-0.218,0.737-0.323,1.493-0.314,2.267
			c0.008,0.775,0.073,1.643,0.194,2.602L54.743,130.774z M56.068,143.441l-1.077-8.576l8.837-1.11l1.077,8.576L56.068,143.441z"/>
	</g>
</g>
</svg>
